<svg width="772" height="976" viewBox="0 0 772 976" fill="none" xmlns="http://www.w3.org/2000/svg">
<mask id="path-1-inside-1_733_141" fill="white">
<path d="M153.134 98.5161C161.514 71.4161 179.284 58.0761 207.274 58.7261C209.284 56.9461 209.124 54.2561 209.894 52.0061C218.144 27.8561 234.164 11.2261 258.534 3.68608C285.844 -4.76392 310.314 1.53608 331.694 20.3061C333.224 21.6461 334.644 23.1161 336.314 24.7161C337.474 24.3261 338.614 24.0061 339.704 23.5561C358.844 15.7361 376.164 18.4761 391.534 32.4961C392.284 33.1761 393.034 33.8461 393.754 34.4861C396.104 33.8461 397.074 31.8961 398.454 30.4761C413.634 15.0161 431.894 5.06608 453.364 2.69608C491.994 -1.58392 522.824 12.4161 544.904 44.6761C551.814 54.7761 556.064 66.0861 558.404 78.0961C558.634 79.2861 558.914 80.4661 559.264 82.0961C561.384 81.5861 563.324 81.1661 565.234 80.6661C597.784 72.1561 631.274 91.2961 640.354 123.696C643.114 133.536 643.274 143.506 641.244 153.526C638.674 166.176 636.064 178.816 633.624 191.486C627.944 221.066 622.364 250.666 616.754 280.266C611.224 309.466 605.744 338.666 600.214 367.856C594.684 397.046 589.114 426.236 583.564 455.426C582.994 458.446 582.244 461.446 581.914 464.496C581.604 467.396 580.194 469.336 577.984 471.096C568.054 479.036 558.214 487.086 548.334 495.086C490.984 541.566 433.634 588.056 376.274 634.536C374.544 635.936 372.774 637.286 370.974 638.696C369.214 637.346 367.724 636.266 366.304 635.116C299.244 580.766 232.184 526.386 165.064 472.096C161.984 469.606 160.364 466.846 159.644 462.976C153.344 429.136 146.854 395.316 140.454 361.496C134.504 330.086 128.594 298.666 122.654 267.256C116.514 234.836 110.374 202.426 104.174 170.016C103.754 167.816 102.914 165.696 102.224 163.556C95.1238 141.446 103.824 117.706 123.424 105.766C130.944 101.186 139.154 98.9161 147.914 98.5161C149.534 98.4461 151.164 98.5161 153.134 98.5161ZM371.794 511.496C371.534 509.926 371.054 508.356 371.034 506.786C370.954 498.596 371.014 490.406 370.984 482.216C370.974 480.196 370.864 478.166 370.794 475.986C361.114 470.006 351.554 464.086 341.964 458.236C341.414 457.896 340.534 458.106 339.434 458.026C339.844 469.836 340.254 481.276 340.654 492.736C344.404 495.256 347.964 497.656 351.534 500.026C356.814 503.546 362.114 507.026 367.384 510.576C368.814 511.546 370.224 512.206 371.934 511.366C371.664 512.556 371.174 513.746 371.174 514.936C371.124 524.776 371.164 534.626 371.214 544.466C371.214 544.976 371.594 545.486 371.964 546.416C373.884 545.176 375.594 544.156 377.214 543.016C396.674 529.346 416.124 515.656 435.574 501.966C463.074 482.616 490.544 463.236 518.094 443.956C520.824 442.046 522.314 439.906 522.694 436.526C523.714 427.366 525.064 418.236 526.274 409.096C529.054 388.166 531.834 367.246 534.594 346.316C534.714 345.416 534.554 344.476 534.504 342.896C531.984 344.236 530.004 345.216 528.084 346.316C504.434 359.876 480.804 373.446 457.164 387.026C430.684 402.236 404.214 417.466 377.704 432.606C375.834 433.676 374.224 435.546 371.724 435.276C371.494 432.866 371.054 430.446 371.054 428.036C371.014 387.436 371.024 346.826 371.014 306.226C371.014 303.796 370.934 301.376 370.894 299.246C367.344 297.166 309.314 272.726 303.684 270.916C303.144 270.746 302.494 270.896 301.494 270.896C301.494 272.606 301.444 274.196 301.504 275.786C301.574 277.626 301.734 279.466 301.854 281.306C301.964 282.946 302.114 284.576 302.204 286.216C302.304 288.056 302.364 289.906 302.444 291.746C302.514 293.386 302.554 295.026 302.634 296.666C302.714 298.506 302.804 300.356 302.924 302.196C303.034 303.836 303.224 305.466 303.324 307.096C303.444 308.936 303.524 310.786 303.604 312.626C303.674 314.266 303.724 315.906 303.784 317.546C303.854 319.386 303.924 321.236 304.024 323.076C304.114 324.716 304.264 326.346 304.374 327.986C304.504 329.826 304.624 331.666 304.724 333.506C304.814 335.146 304.854 336.786 304.914 338.426C304.984 340.266 305.044 342.116 305.134 343.956C305.214 345.596 305.304 347.236 305.414 348.866C305.544 350.706 305.774 352.546 305.834 354.386C305.884 355.906 306.264 357.506 305.534 358.996C299.774 356.946 254.184 332.956 250.174 329.866C247.454 301.956 244.724 273.826 241.954 245.416C237.094 243.396 232.394 241.436 227.694 239.486C202.714 229.156 177.724 218.806 152.724 208.516C151.144 207.866 149.614 206.656 147.224 207.246C149.454 223.196 152.304 238.886 154.814 254.636C157.294 270.216 159.844 285.786 162.394 301.366C164.974 317.136 167.584 332.906 170.184 348.676C172.744 364.246 175.334 379.806 177.874 395.386C180.444 411.146 182.794 426.936 185.664 442.326C187.844 443.966 189.634 445.336 191.444 446.676C232.944 477.456 274.444 508.226 315.944 538.996C332.744 551.456 349.534 563.916 366.354 576.336C367.574 577.236 368.624 578.756 370.994 578.116C371.034 567.896 371.024 557.716 370.994 547.576C320.424 511.976 270.164 476.596 219.854 441.186C215.614 409.026 211.414 377.136 207.234 345.236C207.164 344.696 207.434 344.106 207.594 343.276C209.834 343.516 211.444 344.856 213.154 345.846C255.644 370.216 298.114 394.616 340.584 419.016C349.294 424.016 357.994 429.026 366.714 434.006C368.294 434.916 369.864 436.066 371.854 435.126C371.604 436.516 371.134 437.906 371.124 439.296C371.064 450.126 371.084 460.966 371.114 471.796C371.114 472.736 371.354 473.666 371.474 474.616C373.684 474.886 374.844 473.526 376.174 472.716C383.854 468.036 391.464 463.266 399.134 458.566C399.924 458.086 400.894 457.906 402.354 457.376C401.994 469.556 402.234 481.166 401.234 492.346C400.614 493.016 400.384 493.386 400.054 493.596C391.224 499.496 382.384 505.396 373.514 511.256C373.094 511.536 372.394 511.406 371.794 511.496ZM316.784 46.5261C316.644 46.1761 316.594 45.9761 316.494 45.7961C316.294 45.4461 316.114 45.0561 315.834 44.7661C302.924 30.6961 287.164 25.2561 268.584 30.2561C244.174 36.8161 230.164 61.1761 236.094 85.7861C236.554 87.7161 237.794 89.5461 237.034 92.0961C228.864 95.3761 220.564 98.7061 212.384 101.986C210.234 99.7961 210.014 97.2361 209.234 94.9461C208.454 92.6461 207.984 90.2461 207.424 88.1061C197.944 85.9661 189.744 88.7761 184.904 96.1161C178.124 106.406 180.524 115.926 188.384 124.826C185.384 128.476 182.624 132.036 179.644 135.406C176.574 138.886 174.234 143.056 170.264 145.836C164.024 141.136 160.214 134.836 156.654 128.366C155.774 128.076 155.014 127.806 154.234 127.576C139.814 123.456 124.904 137.166 128.654 152.686C129.954 158.046 132.594 161.526 138.194 163.476C206.494 187.206 274.714 211.146 342.954 235.036C351.264 237.946 359.604 240.796 367.884 243.786C369.924 244.526 371.774 244.856 373.774 243.836C374.674 243.376 375.704 243.166 376.674 242.826C426.554 225.366 476.424 207.916 526.304 190.446C551.434 181.646 576.524 172.746 601.704 164.066C605.264 162.836 607.784 160.916 609.544 157.706C615.974 145.936 616.174 134.166 609.124 122.666C599.514 106.996 577.784 101.396 561.304 113.366C558.474 115.416 556.004 115.856 552.794 115.046C546.634 113.496 540.414 112.216 534.234 110.766C533.114 110.506 532.054 109.996 531.034 109.626C538.004 64.6661 507.544 36.8561 480.584 31.2761C465.114 28.0761 450.364 29.6861 436.364 36.8361C418.164 46.1261 406.934 61.1561 401.764 80.5061C400.944 80.7061 400.524 80.9561 400.174 80.8761C392.374 79.1661 384.574 77.4461 376.784 75.6461C376.084 75.4861 375.504 74.7861 374.764 74.2661C375.364 71.9061 376.034 69.7461 376.434 67.5461C376.724 65.9661 376.924 64.2861 376.694 62.7161C375.594 55.0761 369.584 48.9761 362.294 47.8761C354.034 46.6261 346.484 50.5561 343.074 57.9761C342.244 59.7861 341.664 61.7161 340.834 63.9261C336.224 63.5261 331.754 63.1561 327.284 62.7461C322.684 62.3261 317.934 62.8461 313.574 60.9461C313.264 55.5861 315.564 51.1061 316.784 46.5261ZM440.654 270.306C439.154 299.086 437.644 328.126 436.164 357.156C436.134 357.686 436.474 358.226 436.644 358.776C442.244 356.746 487.304 333.106 491.754 329.836C494.314 302.726 496.894 275.396 499.444 248.066C499.494 247.526 499.174 246.956 499.034 246.396C494.624 247.386 447.314 266.726 440.654 270.306ZM312.014 472.896C311.374 461.056 310.764 449.836 310.174 438.996C304.574 434.516 287.864 424.356 283.294 422.676C283.784 434.006 284.824 445.116 285.694 455.926C291.924 460.856 307.174 470.766 312.014 472.896ZM260.204 439.106C260.394 437.706 260.524 437.296 260.494 436.906C259.634 427.536 258.714 418.166 257.894 408.796C257.694 406.526 256.644 405.096 254.724 403.936C248.764 400.356 242.894 396.616 236.964 392.976C236.164 392.486 235.284 391.706 234.024 392.956C235.214 403.266 236.424 413.786 237.664 424.506C245.104 429.256 252.154 434.426 260.204 439.106Z"/>
</mask>
<path d="M153.134 98.5161C161.514 71.4161 179.284 58.0761 207.274 58.7261C209.284 56.9461 209.124 54.2561 209.894 52.0061C218.144 27.8561 234.164 11.2261 258.534 3.68608C285.844 -4.76392 310.314 1.53608 331.694 20.3061C333.224 21.6461 334.644 23.1161 336.314 24.7161C337.474 24.3261 338.614 24.0061 339.704 23.5561C358.844 15.7361 376.164 18.4761 391.534 32.4961C392.284 33.1761 393.034 33.8461 393.754 34.4861C396.104 33.8461 397.074 31.8961 398.454 30.4761C413.634 15.0161 431.894 5.06608 453.364 2.69608C491.994 -1.58392 522.824 12.4161 544.904 44.6761C551.814 54.7761 556.064 66.0861 558.404 78.0961C558.634 79.2861 558.914 80.4661 559.264 82.0961C561.384 81.5861 563.324 81.1661 565.234 80.6661C597.784 72.1561 631.274 91.2961 640.354 123.696C643.114 133.536 643.274 143.506 641.244 153.526C638.674 166.176 636.064 178.816 633.624 191.486C627.944 221.066 622.364 250.666 616.754 280.266C611.224 309.466 605.744 338.666 600.214 367.856C594.684 397.046 589.114 426.236 583.564 455.426C582.994 458.446 582.244 461.446 581.914 464.496C581.604 467.396 580.194 469.336 577.984 471.096C568.054 479.036 558.214 487.086 548.334 495.086C490.984 541.566 433.634 588.056 376.274 634.536C374.544 635.936 372.774 637.286 370.974 638.696C369.214 637.346 367.724 636.266 366.304 635.116C299.244 580.766 232.184 526.386 165.064 472.096C161.984 469.606 160.364 466.846 159.644 462.976C153.344 429.136 146.854 395.316 140.454 361.496C134.504 330.086 128.594 298.666 122.654 267.256C116.514 234.836 110.374 202.426 104.174 170.016C103.754 167.816 102.914 165.696 102.224 163.556C95.1238 141.446 103.824 117.706 123.424 105.766C130.944 101.186 139.154 98.9161 147.914 98.5161C149.534 98.4461 151.164 98.5161 153.134 98.5161ZM371.794 511.496C371.534 509.926 371.054 508.356 371.034 506.786C370.954 498.596 371.014 490.406 370.984 482.216C370.974 480.196 370.864 478.166 370.794 475.986C361.114 470.006 351.554 464.086 341.964 458.236C341.414 457.896 340.534 458.106 339.434 458.026C339.844 469.836 340.254 481.276 340.654 492.736C344.404 495.256 347.964 497.656 351.534 500.026C356.814 503.546 362.114 507.026 367.384 510.576C368.814 511.546 370.224 512.206 371.934 511.366C371.664 512.556 371.174 513.746 371.174 514.936C371.124 524.776 371.164 534.626 371.214 544.466C371.214 544.976 371.594 545.486 371.964 546.416C373.884 545.176 375.594 544.156 377.214 543.016C396.674 529.346 416.124 515.656 435.574 501.966C463.074 482.616 490.544 463.236 518.094 443.956C520.824 442.046 522.314 439.906 522.694 436.526C523.714 427.366 525.064 418.236 526.274 409.096C529.054 388.166 531.834 367.246 534.594 346.316C534.714 345.416 534.554 344.476 534.504 342.896C531.984 344.236 530.004 345.216 528.084 346.316C504.434 359.876 480.804 373.446 457.164 387.026C430.684 402.236 404.214 417.466 377.704 432.606C375.834 433.676 374.224 435.546 371.724 435.276C371.494 432.866 371.054 430.446 371.054 428.036C371.014 387.436 371.024 346.826 371.014 306.226C371.014 303.796 370.934 301.376 370.894 299.246C367.344 297.166 309.314 272.726 303.684 270.916C303.144 270.746 302.494 270.896 301.494 270.896C301.494 272.606 301.444 274.196 301.504 275.786C301.574 277.626 301.734 279.466 301.854 281.306C301.964 282.946 302.114 284.576 302.204 286.216C302.304 288.056 302.364 289.906 302.444 291.746C302.514 293.386 302.554 295.026 302.634 296.666C302.714 298.506 302.804 300.356 302.924 302.196C303.034 303.836 303.224 305.466 303.324 307.096C303.444 308.936 303.524 310.786 303.604 312.626C303.674 314.266 303.724 315.906 303.784 317.546C303.854 319.386 303.924 321.236 304.024 323.076C304.114 324.716 304.264 326.346 304.374 327.986C304.504 329.826 304.624 331.666 304.724 333.506C304.814 335.146 304.854 336.786 304.914 338.426C304.984 340.266 305.044 342.116 305.134 343.956C305.214 345.596 305.304 347.236 305.414 348.866C305.544 350.706 305.774 352.546 305.834 354.386C305.884 355.906 306.264 357.506 305.534 358.996C299.774 356.946 254.184 332.956 250.174 329.866C247.454 301.956 244.724 273.826 241.954 245.416C237.094 243.396 232.394 241.436 227.694 239.486C202.714 229.156 177.724 218.806 152.724 208.516C151.144 207.866 149.614 206.656 147.224 207.246C149.454 223.196 152.304 238.886 154.814 254.636C157.294 270.216 159.844 285.786 162.394 301.366C164.974 317.136 167.584 332.906 170.184 348.676C172.744 364.246 175.334 379.806 177.874 395.386C180.444 411.146 182.794 426.936 185.664 442.326C187.844 443.966 189.634 445.336 191.444 446.676C232.944 477.456 274.444 508.226 315.944 538.996C332.744 551.456 349.534 563.916 366.354 576.336C367.574 577.236 368.624 578.756 370.994 578.116C371.034 567.896 371.024 557.716 370.994 547.576C320.424 511.976 270.164 476.596 219.854 441.186C215.614 409.026 211.414 377.136 207.234 345.236C207.164 344.696 207.434 344.106 207.594 343.276C209.834 343.516 211.444 344.856 213.154 345.846C255.644 370.216 298.114 394.616 340.584 419.016C349.294 424.016 357.994 429.026 366.714 434.006C368.294 434.916 369.864 436.066 371.854 435.126C371.604 436.516 371.134 437.906 371.124 439.296C371.064 450.126 371.084 460.966 371.114 471.796C371.114 472.736 371.354 473.666 371.474 474.616C373.684 474.886 374.844 473.526 376.174 472.716C383.854 468.036 391.464 463.266 399.134 458.566C399.924 458.086 400.894 457.906 402.354 457.376C401.994 469.556 402.234 481.166 401.234 492.346C400.614 493.016 400.384 493.386 400.054 493.596C391.224 499.496 382.384 505.396 373.514 511.256C373.094 511.536 372.394 511.406 371.794 511.496ZM316.784 46.5261C316.644 46.1761 316.594 45.9761 316.494 45.7961C316.294 45.4461 316.114 45.0561 315.834 44.7661C302.924 30.6961 287.164 25.2561 268.584 30.2561C244.174 36.8161 230.164 61.1761 236.094 85.7861C236.554 87.7161 237.794 89.5461 237.034 92.0961C228.864 95.3761 220.564 98.7061 212.384 101.986C210.234 99.7961 210.014 97.2361 209.234 94.9461C208.454 92.6461 207.984 90.2461 207.424 88.1061C197.944 85.9661 189.744 88.7761 184.904 96.1161C178.124 106.406 180.524 115.926 188.384 124.826C185.384 128.476 182.624 132.036 179.644 135.406C176.574 138.886 174.234 143.056 170.264 145.836C164.024 141.136 160.214 134.836 156.654 128.366C155.774 128.076 155.014 127.806 154.234 127.576C139.814 123.456 124.904 137.166 128.654 152.686C129.954 158.046 132.594 161.526 138.194 163.476C206.494 187.206 274.714 211.146 342.954 235.036C351.264 237.946 359.604 240.796 367.884 243.786C369.924 244.526 371.774 244.856 373.774 243.836C374.674 243.376 375.704 243.166 376.674 242.826C426.554 225.366 476.424 207.916 526.304 190.446C551.434 181.646 576.524 172.746 601.704 164.066C605.264 162.836 607.784 160.916 609.544 157.706C615.974 145.936 616.174 134.166 609.124 122.666C599.514 106.996 577.784 101.396 561.304 113.366C558.474 115.416 556.004 115.856 552.794 115.046C546.634 113.496 540.414 112.216 534.234 110.766C533.114 110.506 532.054 109.996 531.034 109.626C538.004 64.6661 507.544 36.8561 480.584 31.2761C465.114 28.0761 450.364 29.6861 436.364 36.8361C418.164 46.1261 406.934 61.1561 401.764 80.5061C400.944 80.7061 400.524 80.9561 400.174 80.8761C392.374 79.1661 384.574 77.4461 376.784 75.6461C376.084 75.4861 375.504 74.7861 374.764 74.2661C375.364 71.9061 376.034 69.7461 376.434 67.5461C376.724 65.9661 376.924 64.2861 376.694 62.7161C375.594 55.0761 369.584 48.9761 362.294 47.8761C354.034 46.6261 346.484 50.5561 343.074 57.9761C342.244 59.7861 341.664 61.7161 340.834 63.9261C336.224 63.5261 331.754 63.1561 327.284 62.7461C322.684 62.3261 317.934 62.8461 313.574 60.9461C313.264 55.5861 315.564 51.1061 316.784 46.5261ZM440.654 270.306C439.154 299.086 437.644 328.126 436.164 357.156C436.134 357.686 436.474 358.226 436.644 358.776C442.244 356.746 487.304 333.106 491.754 329.836C494.314 302.726 496.894 275.396 499.444 248.066C499.494 247.526 499.174 246.956 499.034 246.396C494.624 247.386 447.314 266.726 440.654 270.306ZM312.014 472.896C311.374 461.056 310.764 449.836 310.174 438.996C304.574 434.516 287.864 424.356 283.294 422.676C283.784 434.006 284.824 445.116 285.694 455.926C291.924 460.856 307.174 470.766 312.014 472.896ZM260.204 439.106C260.394 437.706 260.524 437.296 260.494 436.906C259.634 427.536 258.714 418.166 257.894 408.796C257.694 406.526 256.644 405.096 254.724 403.936C248.764 400.356 242.894 396.616 236.964 392.976C236.164 392.486 235.284 391.706 234.024 392.956C235.214 403.266 236.424 413.786 237.664 424.506C245.104 429.256 252.154 434.426 260.204 439.106Z" fill="white" stroke="black" stroke-width="2" mask="url(#path-1-inside-1_733_141)"/>
<path d="M619.326 774.548L619.453 774.743C619.752 775.2 620.072 775.68 620.403 776.178C621.125 777.26 621.901 778.424 622.63 779.614M619.326 774.548L622.204 779.876M619.326 774.548L619.096 774.52M619.326 774.548L619.096 774.52M622.63 779.614C622.63 779.614 622.63 779.615 622.63 779.615L622.204 779.876M622.63 779.614C622.63 779.614 622.63 779.614 622.63 779.614L622.204 779.876M622.63 779.614C625.289 783.941 627.942 788.269 630.594 792.597C634.258 798.576 637.922 804.554 641.599 810.523M622.204 779.876C624.862 784.201 627.515 788.529 630.167 792.858C633.832 798.837 637.496 804.817 641.174 810.786M641.599 810.523L641.174 810.786M641.599 810.523C642.166 811.44 642.806 812.298 643.428 813.13C643.663 813.445 643.895 813.757 644.12 814.066M641.599 810.523C641.599 810.523 641.6 810.523 641.6 810.524L641.174 810.786M641.174 810.786L644.12 814.066M644.12 814.066H644.107H644.059H644.01H643.961H643.913H643.864V814.566L644.271 814.275C644.221 814.205 644.171 814.136 644.12 814.066ZM644.12 814.066H644.156H644.205H644.253H644.302H644.351H644.399H644.448H644.496H644.545H644.594H644.642H644.691H644.739H644.788H644.836H644.885H644.933H644.982H645.03H645.079H645.128H645.176H645.225H645.273H645.321H645.37H645.418H645.467H645.515H645.564H645.612H645.661H645.709H645.758H645.806H645.854H645.903H645.951H646H646.048H646.096H646.145H646.193H646.242H646.29H646.338H646.387H646.435H646.483H646.532H646.58H646.628H646.677H646.725H646.773H646.822H646.87H646.918H646.967H647.015H647.063H647.112H647.16H647.208H647.257H647.305H647.353H647.401H647.45H647.498H647.546H647.595H647.643H647.691H647.739H647.788H647.836H647.884H647.932H647.981H648.029H648.077H648.125H648.174H648.222H648.27H648.318H648.367H648.415H648.463H648.511H648.559H648.608H648.656H648.704H648.752H648.801H648.849H648.897H648.945H648.993H649.042H649.09H649.138H649.186H649.234H649.283H649.331H649.379H649.427H649.475H649.524H649.572H649.62H649.668H649.716H649.765H649.813H649.861H649.909H649.957H650.006H650.054H650.102H650.15H650.199H650.247H650.295H650.343H650.391H650.44H650.488H650.536H650.584H650.632H650.681H650.729H650.777H650.825H650.873H650.922H650.97H651.018H651.066H651.115H651.163H651.211H651.259H651.308H651.356H651.404H651.452H651.501H651.549H651.597H651.645H651.694H651.742H651.79H651.838H651.887H651.935H651.983H652.031H652.08H652.128H652.176H652.224H652.273H652.321H652.369H652.418H652.466H652.514H652.563H652.611H652.659H652.708H652.756H652.804H652.853H652.901H652.949H652.998H653.046H653.094H653.143H653.191H653.239H653.288H653.336H653.385H653.433H653.481H653.53H653.578H653.627H653.675H653.723H653.772H653.82H653.869H653.917H653.966H654.014H654.062H654.111H654.159H654.208H654.256H654.305H654.353H654.402H654.45H654.499H654.547H654.596H654.645H654.693H654.742H654.79H654.839H654.887H654.936H654.984H655.033H655.082H655.13H655.179H655.227H655.276H655.325H655.373H655.422H655.471H655.519H655.568H655.617H655.665H655.714H655.763H655.812H655.86H655.909H655.958H656.006H656.055H656.104H656.153H656.202H656.25H656.299H656.348H656.397H656.446H656.494H656.543H656.592H656.641H656.69H656.739H656.788H656.836H656.885H656.934H656.983H657.032H657.081H657.13H657.179H657.228H657.277H657.326H657.375H657.424H657.473H657.522H657.571H657.62H657.669H657.718H657.767H657.817H657.866H657.915H657.964H658.013H658.062H658.111H658.161H658.21H658.259H658.308H658.357H658.407H658.456H658.505H658.554H658.604H658.653H658.702H658.752H658.801H658.85H658.9H658.949H658.998H659.048H659.097H659.147H659.196H659.246H659.295H659.345H659.394H659.444H659.493H659.543H659.592H659.642H659.691H659.741H659.79H659.84H659.89H659.939H659.989H660.039H660.088H660.138H660.188H660.237H660.287H660.337H660.387H660.436H660.486H660.536H660.586H660.636H660.685H660.735H660.785H660.835H660.885H660.935H660.985H661.035H661.085H661.135H661.185H661.235H661.285H661.335H661.385H661.435H661.485H661.535H661.585H661.635H661.686H661.736H661.786H661.836H661.886H661.937H661.987H662.037H662.087H662.138H662.188H662.238H662.289H662.339H662.389H662.44H662.49H662.541H662.591H662.642H662.692H662.743H662.793H662.844H662.894H662.945H662.995H663.046H663.097H663.147H663.198H663.249H663.299H663.35H663.401H663.451H663.502H663.553H663.604H663.655H663.705H663.756H663.807H663.858H663.909H663.96H664.011H664.062H664.113H664.164H664.215H664.266H664.317H664.368H664.419H664.47H664.522H664.573H664.624H664.675H664.726H664.778H664.829H664.88H664.932H664.983H665.034H665.086H665.137H665.188H665.24H665.291H665.343H665.394H665.446H665.497H665.549H665.6H665.652H665.704H665.755H665.807H665.859H665.91H665.962H666.014H666.066H666.117H666.169H666.221H666.273H666.325H666.377H666.429H666.481H666.533H666.585H666.637H666.689H666.741H666.793H666.845H666.897H666.949H667.001H667.053H667.106H667.158H667.21H667.263H667.315H667.367H667.42H667.472H667.524H667.577H667.629H667.682H667.734H667.787H667.839H667.892H667.944H667.997H668.05H668.102H668.155H668.208H668.26H668.313H668.339M644.12 814.066H668.339M668.339 814.066C663.901 806.55 659.5 799.319 655.175 792.217L654.853 791.689C650.494 784.534 646.213 777.505 642.053 770.45L641.827 770.066L642.182 769.797C643.315 768.939 644.455 768.141 645.557 767.369C646.143 766.959 646.718 766.557 647.276 766.156C648.898 764.992 650.403 763.829 651.718 762.495L651.718 762.495C662.84 751.215 665.628 737.667 661.254 722.706L661.254 722.706C657.085 708.431 643.477 694.692 624.095 695.106L668.339 814.066ZM619.096 774.52C615.202 774.036 610.493 773.843 606.201 773.921C601.922 773.999 598.007 774.346 595.724 774.963L595.388 775.054M619.096 774.52L595.388 775.054M595.388 775.054L595.356 775.4M595.388 775.054L595.356 775.4M595.356 775.4C594.954 779.771 595.009 784.217 595.064 788.643C595.09 790.733 595.116 792.819 595.094 794.891C595.046 799.234 595.059 803.575 595.072 807.872C595.078 809.711 595.083 811.542 595.084 813.361C592.798 813.926 588.775 814.243 584.549 814.287C580.281 814.331 575.881 814.096 572.964 813.582C572.939 813.351 572.912 813.119 572.885 812.886C572.797 812.123 572.707 811.354 572.694 810.567L572.694 810.564M595.356 775.4L572.694 810.564M572.694 810.564C572.329 794.742 572.242 767.552 572.361 743.535M572.694 810.564L572.361 743.535M572.361 743.535C572.421 731.527 572.533 720.314 572.688 711.713M572.361 743.535L572.688 711.713M572.688 711.713C572.766 707.412 572.854 703.767 572.952 701.002M572.688 711.713L572.952 701.002M572.952 701.002C573.042 698.446 573.14 696.67 573.242 695.82M572.952 701.002L573.242 695.82M573.242 695.82C573.944 695.326 574.731 695.155 575.599 695.118C576.069 695.098 576.553 695.117 577.056 695.142C577.12 695.146 577.184 695.149 577.248 695.152C577.686 695.175 578.139 695.198 578.586 695.196M573.242 695.82L624.095 695.106C614.146 695.322 604.186 695.276 594.232 695.23C589.014 695.206 583.798 695.182 578.586 695.196M578.586 695.196C578.586 695.196 578.586 695.196 578.585 695.196L578.584 694.696L578.587 695.196C578.586 695.196 578.586 695.196 578.586 695.196ZM595.905 753.768L595.972 754.093L596.297 754.157C596.488 754.194 596.672 754.24 596.875 754.29C597.018 754.326 597.171 754.364 597.343 754.403C597.727 754.491 598.155 754.57 598.598 754.576L598.602 754.576C607.202 754.616 615.804 754.636 624.406 754.606H624.406C629.714 754.585 633.707 752.083 636.664 747.842L636.254 747.556L636.664 747.842C640.791 741.923 641.478 735.289 639.799 728.624L639.799 728.624C637.949 721.286 631.727 714.124 621.994 714.516L621.993 714.516C617.185 714.713 612.379 714.676 607.557 714.638C604.804 714.616 602.046 714.594 599.28 714.616L599.28 714.616C598.654 714.622 598.04 714.748 597.474 714.893C597.242 714.952 597.027 715.011 596.819 715.069C596.497 715.158 596.195 715.241 595.889 715.307L595.531 715.384L595.496 715.748C595.079 720.082 594.937 728.415 595.019 736.229C595.06 740.139 595.158 743.928 595.306 747.03C595.454 750.117 595.653 752.565 595.905 753.768Z" fill="white" stroke="black"/>
<path d="M522.891 809.208L522.891 809.208C502.208 819.486 481.576 817.779 463.273 803.383C431.112 778.087 431.328 729.435 465.597 704.591L465.597 704.591C487.559 688.664 521.187 690.223 541.226 714.832C549.208 724.65 556.109 739.476 555.824 755.429C554.649 779.383 544.726 798.365 522.891 809.208ZM533.184 754.537L533.184 754.534C533.143 745.442 530.608 736.9 526.096 729.808L526.096 729.807C512.849 709.008 483.112 708.921 469.595 729.603C459.645 744.821 459.933 767.079 470.742 781.723C474.982 787.471 480.027 791.371 485.76 793.52C491.49 795.669 497.876 796.056 504.781 794.828L504.781 794.828C514.614 793.078 521.724 787.149 526.791 778.826L526.791 778.825C531.307 771.374 533.174 763.17 533.184 754.537Z" fill="white" stroke="black"/>
<path d="M181.913 808.828L181.913 808.828C163.454 818.964 138.139 817.813 120.156 802.654L120.156 802.654C89.684 776.974 89.7179 730.633 122.199 705.602L122.199 705.602C144.381 688.505 179.356 689.729 199.641 715.416L199.642 715.416C208.765 726.959 213.672 740.036 213.734 758.987C212.937 778.653 203.051 797.227 181.913 808.828ZM181.369 726.178L181.369 726.178C172.159 715.028 158.563 711.724 145.316 715.818C136.097 718.664 129.486 724.991 125.364 733.549C118.134 748.543 118.477 763.623 126.465 778.216C138.688 800.56 170.789 801.898 184.571 779.206C189.083 771.777 191.114 763.64 191.124 758.538C191.174 744.29 188.275 734.544 181.369 726.178Z" fill="white" stroke="black"/>
<path d="M254.173 754.586L254.054 754.256C253.901 753.832 253.761 753.501 253.637 753.206C253.585 753.084 253.537 752.968 253.491 752.855C253.342 752.488 253.214 752.127 253.214 751.737C253.194 740.267 253.194 728.796 253.234 717.325C253.234 717.325 253.234 717.325 253.234 717.324L254.173 754.586ZM254.173 754.586H254.524M254.173 754.586H254.524M254.524 754.586C257.266 754.586 259.985 754.602 262.687 754.619C268.937 754.656 275.094 754.694 281.238 754.526C287.334 754.36 291.567 750.902 294.01 745.481L294.01 745.481M254.524 754.586L294.01 745.481M294.01 745.481C296.307 740.376 296.721 735.021 295.746 729.548M294.01 745.481L295.746 729.548M295.746 729.548C294.925 724.935 292.924 721.219 289.921 718.642M295.746 729.548L289.921 718.642M289.921 718.642C286.917 716.064 282.949 714.657 278.251 714.596L289.921 718.642ZM253.898 774.196L253.45 774.211L253.124 794.961C253.124 794.961 253.124 794.961 253.124 794.961C253.084 799.181 253.088 803.407 253.093 807.59C253.095 809.542 253.097 811.486 253.095 813.414C250.718 813.964 246.624 814.265 242.383 814.297C238.109 814.33 233.761 814.088 230.968 813.576C230.94 813.287 230.91 812.996 230.88 812.706C230.784 811.786 230.687 810.86 230.674 809.919L230.674 809.917C230.329 789.787 230.244 762.714 230.366 739.887C230.428 728.474 230.541 718.125 230.699 710.237C230.848 702.83 231.036 697.636 231.253 695.751C231.475 695.7 231.704 695.642 231.929 695.585C232.132 695.533 232.333 695.483 232.524 695.438C233.068 695.311 233.596 695.216 234.114 695.216L234.115 695.216C236.397 695.21 238.679 695.204 240.96 695.198C254.661 695.16 268.364 695.122 282.061 695.216L282.061 695.216C292.311 695.285 300.891 699.418 307.755 706.943C322.806 723.447 321.742 745.701 309.613 760.884L309.613 760.884C302.949 769.237 294.296 773.867 283.46 773.946H283.46C279.072 773.981 274.689 773.979 270.303 773.976C267.112 773.975 263.919 773.973 260.722 773.986L260.721 773.986C259.354 773.993 257.982 774.045 256.39 774.106C255.619 774.136 254.796 774.167 253.898 774.196Z" fill="white" stroke="black"/>
<path d="M6.11494 695.186L6.11391 695.186C4.9508 695.186 3.79833 695.279 2.54345 695.381C2.01763 695.424 1.47383 695.468 0.90373 695.507C0.854904 696.031 0.802617 696.522 0.752698 696.991C0.629393 698.148 0.52053 699.171 0.513934 700.218C0.493935 736.897 0.493945 773.566 0.523944 810.246L0.523945 810.246C0.523944 810.893 0.601849 811.548 0.710857 812.272C0.745511 812.502 0.783659 812.74 0.823161 812.988C0.885336 813.377 0.950865 813.787 1.01141 814.217C2.85833 814.223 4.68475 814.249 6.50085 814.275C11.8616 814.351 17.1325 814.426 22.5759 813.975C22.6051 813.398 22.6366 812.842 22.6671 812.303C22.7504 810.831 22.8271 809.476 22.8339 808.114C22.8339 808.114 22.8339 808.114 22.8339 808.114L23.3339 808.116C23.3423 804.187 23.3419 800.259 23.3416 796.331C23.3411 790.834 23.3406 785.337 23.3639 779.836L6.11494 695.186ZM6.11494 695.186C11.0719 695.176 16.0327 695.199 20.9951 695.223C30.5842 695.268 40.1793 695.314 49.7642 695.116L49.7644 695.116M6.11494 695.186L49.7644 695.116M49.7644 695.116C69.4561 694.702 83.4427 708.867 87.4382 725.195L87.4383 725.195M49.7644 695.116L87.4383 725.195M87.4383 725.195C90.7977 738.89 87.5056 751.327 78.4222 762.063L78.4222 762.063M87.4383 725.195L78.4222 762.063M78.4222 762.063C71.9808 769.678 63.6657 773.838 53.5591 773.936H53.5588M78.4222 762.063L53.5588 773.936M53.5588 773.936C49.2291 773.981 44.9128 773.979 40.593 773.977M53.5588 773.936L40.593 773.977M40.593 773.977C37.134 773.975 33.6728 773.974 30.2007 773.996L40.593 773.977ZM23.5801 754.144L23.646 754.562L24.0685 754.566C25.3275 754.58 26.5818 754.595 27.8322 754.61C35.7919 754.705 43.5902 754.799 51.3734 754.496L51.3735 754.496C57.1971 754.267 61.3044 750.891 63.7168 745.738L63.7169 745.738C66.1896 740.445 66.5504 734.856 65.5057 729.186L65.5056 729.185C64.6874 724.757 62.6686 721.139 59.6953 718.61C56.7218 716.081 52.8237 714.668 48.2918 714.596C42.31 714.502 36.3207 714.54 30.343 714.578C29.3487 714.584 28.3547 714.59 27.361 714.596L27.3596 714.596C26.5247 714.603 25.6603 714.743 24.8891 714.868C24.5558 714.922 24.2399 714.974 23.9513 715.01L23.5786 715.057L23.52 715.428C23.0676 718.296 22.8489 726.492 22.8577 734.67C22.8664 742.85 23.1027 751.123 23.5801 754.144Z" fill="white" stroke="black"/>
<path d="M732.93 695.146L732.93 695.146C723.323 695.261 713.709 695.237 704.099 695.212C698.732 695.199 693.367 695.185 688.006 695.196C686.941 695.203 685.886 695.32 684.782 695.442C684.377 695.487 683.965 695.533 683.544 695.574C682.954 697.268 683.003 698.854 683.055 700.497C683.07 701 683.086 701.509 683.084 702.027M732.93 695.146L682.584 702.026M732.93 695.146C754.896 694.88 769.244 713.634 770.836 730.772L771.334 730.726M732.93 695.146L771.334 730.726M683.084 702.027C683.084 702.028 683.084 702.028 683.084 702.028L682.584 702.026M683.084 702.027C683.084 702.027 683.084 702.027 683.084 702.027L682.584 702.026M683.084 702.027C683.06 718.279 683.061 734.525 683.063 750.774C683.063 754.831 683.064 758.888 683.064 762.946C683.064 766.361 683.063 769.776 683.062 773.192C683.058 785.16 683.055 797.13 683.094 809.094M682.584 702.026C682.56 718.278 682.561 734.525 682.563 750.775C682.563 754.831 682.564 758.888 682.564 762.946C682.564 766.361 682.563 769.776 682.562 773.191C682.558 785.159 682.555 797.131 682.594 809.096M683.094 809.094C683.094 809.094 683.094 809.093 683.094 809.093L682.594 809.096M683.094 809.094C683.094 809.094 683.094 809.094 683.094 809.094L682.594 809.096M683.094 809.094C683.096 809.504 683.071 809.921 683.047 810.32C683.044 810.371 683.041 810.422 683.038 810.473C683.012 810.926 682.991 811.358 683.008 811.777C683.041 812.545 683.2 813.239 683.673 813.861C687.233 814.247 691.535 814.399 695.523 814.323C699.382 814.25 702.911 813.964 705.181 813.482C705.201 813.038 705.224 812.59 705.247 812.14C705.316 810.767 705.387 809.369 705.394 807.964C705.394 807.964 705.394 807.964 705.394 807.963L705.894 807.966C705.907 803.836 705.907 799.708 705.906 795.581C705.906 790.273 705.906 784.966 705.934 779.656L682.594 809.096M771.334 730.726L770.836 730.772C771.835 741.51 769.099 751.316 762.605 759.925L771.334 730.726ZM706.321 754.586L706.243 754.181C705.99 752.872 705.792 750.3 705.647 747.093C705.501 743.873 705.406 739.976 705.366 735.992C705.286 728.034 705.423 719.697 705.806 715.718L705.842 715.35L706.204 715.276C706.517 715.212 706.824 715.131 707.153 715.045C707.356 714.991 707.568 714.935 707.794 714.88C708.36 714.742 708.971 714.622 709.599 714.616L706.321 754.586ZM706.321 754.586H706.734M706.321 754.586H706.734M706.734 754.586C709.455 754.586 712.148 754.6 714.822 754.614M706.734 754.586L714.822 754.614M714.822 754.614C721.106 754.648 727.278 754.68 733.436 754.526M714.822 754.614L733.436 754.526M733.436 754.526C739.241 754.38 743.445 751.196 745.924 746.054M733.436 754.526L745.924 746.054M745.924 746.054C748.758 740.192 749.267 734.027 747.536 727.753M745.924 746.054L747.536 727.753M747.536 727.753C746.378 723.546 744.334 720.274 741.45 718.043C738.565 715.811 734.881 714.652 730.5 714.596C730.5 714.596 730.5 714.596 730.5 714.596L747.536 727.753Z" fill="white" stroke="black"/>
<path d="M369.959 696.487L369.959 696.487C381.578 693.233 393.319 693.323 404.853 696.953C416.849 700.739 426.102 708.032 432.346 719.436C432.155 719.631 431.967 719.829 431.785 720.022C431.634 720.181 431.486 720.337 431.343 720.483C430.935 720.903 430.538 721.279 430.105 721.588C426.452 724.172 422.769 726.712 418.924 729.364C417.971 730.022 417.008 730.686 416.033 731.36C415.85 731.136 415.673 730.924 415.503 730.72C414.988 730.106 414.529 729.558 414.151 728.936C408.768 720.043 400.589 715.646 390.597 714.38L390.596 714.38C381.525 713.237 374.134 715.072 368.307 718.699C362.487 722.323 358.259 727.715 355.471 733.643C348.606 748.242 348.796 762.98 356.565 777.235L356.565 777.236C361.338 785.981 368.577 791.912 378.415 794.539L378.415 794.539C389.644 797.534 406.531 793.543 414.469 780.569C414.866 779.926 415.281 779.291 415.787 778.516C416.009 778.175 416.249 777.807 416.513 777.4C417.057 777.72 417.596 778.037 418.131 778.351C423.362 781.426 428.207 784.275 433.035 787.154C433.206 787.259 433.367 787.423 433.57 787.665C433.625 787.731 433.685 787.805 433.749 787.884C433.849 788.008 433.959 788.143 434.077 788.281C432.21 793.661 428.668 797.84 424.371 801.474L424.694 801.856L424.371 801.474C416.267 808.33 406.841 812.387 396.408 814.203C384.8 816.224 374.443 815.166 365.231 811.328C356.017 807.489 347.918 800.857 340.85 791.681C333.349 781.937 329.044 770.789 328.032 758.545C325.79 731.4 342.382 704.207 369.959 696.487Z" fill="white" stroke="black"/>
<path d="M255.924 882.583L255.638 882.718C255.55 882.76 255.461 882.802 255.372 882.844C255.086 882.981 254.797 883.118 254.517 883.243L254.207 883.381L253.964 883.143C253.426 882.617 252.892 882.09 252.36 881.565C251.473 880.69 250.59 879.818 249.697 878.956C238.825 868.468 223.469 868.225 212.714 874.105C206.902 877.292 202.297 881.739 198.892 887.394L198.892 887.394C193.294 896.684 192.025 906.715 194.104 917.249L194.104 917.25C195.755 925.63 199.624 932.803 205.981 938.617L205.981 938.617C217.576 949.229 236.948 948.75 247.716 937.707C248.277 937.132 248.814 936.528 249.36 935.914L249.364 935.91C249.906 935.3 250.457 934.681 251.034 934.089C251.311 933.801 251.626 933.568 251.999 933.309C252.111 933.232 252.227 933.152 252.352 933.067C252.653 932.862 252.999 932.627 253.42 932.321L254.17 931.778L254.213 932.703C254.256 933.6 254.305 934.411 254.351 935.165C254.433 936.517 254.504 937.684 254.504 938.836M255.924 882.583L254.004 938.836M255.924 882.583V882.266V882.246V882.226V882.206V882.186V882.165V882.145V882.125V882.105V882.085V882.065V882.044V882.024V882.004V881.984V881.964V881.944V881.923V881.903V881.883V881.863V881.843V881.823V881.803V881.782V881.762V881.742V881.722V881.702V881.682V881.661V881.641V881.621V881.601V881.581V881.561V881.54V881.52V881.5V881.48V881.46V881.44V881.42V881.399V881.379V881.359V881.339V881.319V881.299V881.278V881.258V881.238V881.218V881.198V881.178V881.157V881.137V881.117V881.097V881.077V881.057V881.036V881.016V880.996V880.976V880.956V880.936V880.915V880.895V880.875V880.855V880.835V880.815V880.794V880.774V880.754V880.734V880.714V880.694V880.673V880.653V880.633V880.613V880.593V880.573V880.552V880.532V880.512V880.492V880.472V880.452V880.431V880.411V880.391V880.371V880.351V880.33V880.31V880.29V880.27V880.25V880.23V880.209V880.189V880.169V880.149V880.129V880.109V880.088V880.068V880.048V880.028V880.008V879.987V879.967V879.947V879.927V879.907V879.886V879.866V879.846V879.826V879.806V879.786V879.765V879.745V879.725V879.705V879.685V879.664V879.644V879.624V879.604V879.584V879.563V879.543V879.523V879.503V879.483V879.462V879.442V879.422V879.402V879.382V879.361V879.341V879.321V879.301V879.281V879.26V879.24V879.22V879.2V879.18V879.159V879.139V879.119V879.099V879.079V879.058V879.038V879.018V878.998V878.977V878.957V878.937V878.917V878.897V878.876V878.856V878.836V878.816V878.795V878.775V878.755V878.735V878.715V878.694V878.674V878.654V878.634V878.613V878.593V878.573V878.553V878.533V878.512V878.492V878.472V878.452V878.431V878.411V878.391V878.371V878.35V878.33V878.31V878.29V878.269V878.249V878.229V878.209V878.188V878.168V878.148V878.128V878.107V878.087V878.067V878.047V878.026V878.006V877.986V877.966V877.945V877.925V877.905V877.885V877.864V877.844V877.824V877.804V877.783V877.763V877.743V877.722V877.702V877.682V877.662V877.641V877.621V877.601V877.581V877.56V877.54V877.52V877.499V877.479V877.459V877.439V877.418V877.398V877.378V877.357V877.337V877.317V877.297V877.276V877.256V877.236V877.215V877.195V877.175V877.155V877.134V877.114V877.094V877.073V877.053V877.033V877.012V876.992V876.972V876.951V876.931V876.911V876.891V876.87V876.85V876.83V876.809V876.789V876.769V876.748V876.728V876.708V876.687V876.667V876.647V876.626V876.606V876.586V876.565V876.545V876.525V876.504V876.484V876.464V876.443V876.423V876.403V876.382V876.362V876.342V876.321V876.301V876.281V876.26V876.24V876.22V876.199V876.179V876.158V876.138V876.118V876.097V876.077V876.057V876.036V876.016V875.996V875.975V875.955V875.934V875.914V875.894V875.873V875.853V875.832V875.812V875.792V875.771V875.751V875.731V875.71V875.69V875.669V875.649V875.629V875.608V875.588V875.567V875.547V875.527V875.506V875.486V875.465V875.445V875.425V875.404V875.384V875.363V875.343V875.322V875.302V875.282V875.261V875.241V875.22V875.2V875.18V875.159V875.139V875.118V875.098V875.077V875.057V875.036V875.016V874.996V874.975V874.955V874.934V874.914V874.893V874.873V874.852V874.832V874.812V874.791V874.771V874.75V874.73V874.709V874.689V874.668V874.648V874.627V874.607V874.586V874.566V874.545V874.525V874.504V874.484V874.463V874.443V874.422V874.402V874.382V874.361V874.341V874.32V874.3V874.279V874.259V874.238V874.217V874.197V874.176V874.156V874.135V874.115V874.094V874.074V874.053V874.033V874.012V873.992V873.971V873.951V873.93V873.91V873.889V873.869V873.848V873.828V873.807V873.786V873.766V873.745V873.725V873.704V873.684V873.663V873.643V873.622V873.601V873.581V873.56V873.54V873.519V873.499V873.478V873.457V873.437V873.416V873.396V873.375V873.355V873.334V873.313V873.293V873.272V873.252V873.231V873.21V873.19V873.169V873.149V873.128V873.107V873.087V873.066V873.045V873.025V873.004V872.984V872.963V872.942V872.922V872.901V872.88V872.86V872.839V872.819V872.798V872.777V872.757V872.736V872.715V872.695V872.674V872.653V872.633V872.612V872.591V872.571V872.55V872.529V872.509V872.488V872.467V872.447V872.426V872.405V872.385V872.364V872.343V872.323V872.302V872.281V872.261V872.24V872.219V872.198V872.191C258.91 871.107 261.712 871.404 264.804 871.732C265.098 871.764 265.394 871.795 265.693 871.826M255.924 882.583L265.693 871.826M254.504 938.836H254.004M254.504 938.836C254.504 938.836 254.504 938.835 254.504 938.835L254.004 938.836M254.504 938.836C254.518 943.76 254.519 948.68 254.52 953.598C254.521 959.334 254.522 965.068 254.544 970.804L254.544 970.806C254.544 971.82 254.663 972.813 254.795 973.908C254.846 974.335 254.899 974.777 254.948 975.242M254.004 938.836C254.018 943.756 254.019 948.676 254.02 953.595C254.021 959.334 254.022 965.072 254.044 970.806C254.044 971.849 254.169 972.892 254.303 974.007C254.369 974.559 254.437 975.13 254.494 975.726M254.948 975.242C254.804 975.236 254.658 975.231 254.51 975.226L254.494 975.726M254.948 975.242C255.532 975.263 256.084 975.29 256.614 975.316C257.928 975.379 259.105 975.436 260.296 975.396M254.948 975.242C254.963 975.385 254.978 975.531 254.992 975.679L254.494 975.726M254.494 975.726L265.693 871.826M253.714 932.726L254.007 933.131C253.916 933.197 253.828 933.26 253.743 933.32C253.733 933.127 253.723 932.929 253.714 932.726ZM253.714 932.726L253.214 932.75C253.219 932.858 253.225 932.965 253.23 933.07C253.38 932.965 253.541 932.851 253.714 932.726ZM265.693 871.826C265.743 872.114 265.798 872.399 265.852 872.674C265.894 872.893 265.935 873.106 265.972 873.31C266.078 873.898 266.154 874.446 266.154 874.986V874.987C266.184 907.322 266.174 939.667 266.164 972.002L266.164 972.106V972.106C266.164 972.763 266.101 973.41 266.035 974.095C266.012 974.333 265.988 974.575 265.967 974.824C265.103 975.293 264.229 975.435 263.329 975.458C262.844 975.47 262.36 975.448 261.861 975.425L261.834 975.424C261.332 975.401 260.812 975.378 260.296 975.396M260.296 975.396C260.296 975.396 260.297 975.396 260.297 975.396L260.314 975.896L260.296 975.396ZM254.504 909.276L254.504 909.274L254.004 901.296L254.504 901.302C254.504 901.302 254.504 901.302 254.504 901.302C254.555 897.1 253.095 893.457 250.448 890.286C247.893 887.224 244.909 884.653 241.26 882.905L241.26 882.905C236.946 880.84 232.68 879.914 228.52 880.257C224.358 880.599 220.336 882.208 216.509 885.16C202.98 895.576 200.849 916.526 213.519 929.298L213.519 929.298C222.055 937.896 235.349 938.828 244.911 931.37L244.912 931.37C247.063 929.685 248.899 927.568 250.685 925.509C251.048 925.091 251.408 924.676 251.769 924.267C253.828 921.936 254.772 919.173 254.542 915.99L254.542 915.988C254.426 914.45 254.452 912.915 254.48 911.354C254.492 910.667 254.504 909.976 254.504 909.276Z" fill="white" stroke="black"/>
<path d="M437.138 938.051L437.138 938.05C438.438 937.046 439.566 935.796 440.653 934.447C441.157 933.823 441.647 933.182 442.142 932.536L442.26 932.382C442.793 931.686 443.331 930.987 443.887 930.309C444.07 930.085 444.201 929.791 444.338 929.4C444.379 929.284 444.422 929.154 444.467 929.017C444.521 928.853 444.579 928.677 444.642 928.499C441.692 926.949 438.646 926.262 435.24 925.822C428.307 936.839 415.158 939.829 405.502 936.529L405.664 936.056L405.502 936.529C395.516 933.115 388.28 923.373 388.454 913.357L388.459 913.076L388.702 912.934C389.84 912.269 391.031 912.092 392.186 912.071C392.762 912.061 393.338 912.089 393.895 912.119L393.983 912.123C394.514 912.151 395.027 912.178 395.532 912.176H395.532C403.158 912.152 410.776 912.151 418.393 912.15C426.77 912.149 435.147 912.147 443.532 912.116C443.532 912.116 443.532 912.116 443.532 912.116L443.534 912.616C444.038 912.614 444.551 912.644 445.064 912.674C446.761 912.773 448.466 912.873 449.894 911.806L437.138 938.051ZM437.138 938.051C424.807 947.605 411.053 949.036 397.087 942.829L397.087 942.829C383.327 936.724 376.285 925.273 375.493 910.23L375.493 910.23C374.752 896.229 379.912 884.714 391.574 876.84L391.574 876.84C404.233 868.292 417.991 867.517 431.242 874.863C444.833 882.399 450.775 894.795 449.875 910.407L449.875 910.41C449.869 910.516 449.833 910.642 449.747 910.852C449.723 910.909 449.695 910.975 449.664 911.047C449.608 911.176 449.543 911.327 449.48 911.488L437.138 938.051ZM411.805 878.877C399.562 879.59 389.727 888.474 387.84 900.568C387.758 901.087 387.81 901.607 387.882 902.07C387.912 902.258 387.942 902.429 387.971 902.591C388.019 902.857 388.062 903.098 388.086 903.345L388.127 903.76L388.543 903.794C392.839 904.146 404.052 904.271 414.832 904.203C420.227 904.17 425.522 904.088 429.802 903.962C434.065 903.836 437.359 903.666 438.722 903.45L439.226 903.37L439.136 902.868C439.023 902.235 438.929 901.623 438.838 901.029C438.657 899.849 438.487 898.742 438.196 897.692L438.195 897.691C434.932 886.034 423.859 878.173 411.805 878.877ZM411.805 878.877L411.834 879.376M411.805 878.877C411.805 878.877 411.805 878.877 411.805 878.877L411.834 879.376M411.834 879.376C399.824 880.076 390.184 888.786 388.334 900.646L437.714 897.826C434.514 886.396 423.654 878.686 411.834 879.376Z" fill="white" stroke="black"/>
<path d="M344.763 931.792L344.727 931.27L344.208 931.329C343.048 931.461 342.313 931.977 341.759 932.588C341.49 932.883 341.264 933.201 341.06 933.489L341.054 933.498C340.847 933.79 340.665 934.047 340.463 934.271C332.115 943.516 321.695 947.214 309.413 945.988L309.413 945.988C302.533 945.305 297.476 941.846 294.142 935.795C292.176 932.217 291.025 928.363 290.632 924.318L290.631 924.317C290.272 920.654 289.994 916.981 289.964 913.322C289.895 902.961 289.915 892.599 289.934 882.235C289.938 880.509 289.941 878.783 289.944 877.057V877.056C289.944 875.819 290.038 874.599 290.136 873.322C290.171 872.874 290.206 872.419 290.237 871.955C294.112 871.238 297.654 871.285 301.124 871.861C301.635 872.747 301.804 873.64 301.839 874.554C301.858 875.048 301.838 875.544 301.812 876.053C301.808 876.126 301.804 876.199 301.801 876.272C301.778 876.707 301.754 877.154 301.754 877.596L301.754 877.598C301.787 885.523 301.785 893.442 301.783 901.363C301.782 905.327 301.78 909.291 301.784 913.256C301.784 917.166 301.963 921.101 303.198 924.948C304.492 929.004 306.549 932.056 309.38 933.978C312.214 935.903 315.766 936.658 319.975 936.223L319.976 936.223C330.726 935.102 337.996 929.041 342.339 919.462L342.339 919.462C343.19 917.58 343.244 915.263 343.254 913.269C343.303 906.031 343.299 898.794 343.296 891.557C343.294 886.907 343.292 882.257 343.304 877.607V877.606C343.304 876.29 343.391 874.992 343.482 873.629C343.52 873.062 343.558 872.484 343.592 871.889C343.825 871.846 344.043 871.803 344.247 871.763C344.401 871.733 344.545 871.704 344.681 871.679C345.106 871.599 345.461 871.545 345.804 871.536C347.958 871.506 350.112 871.51 352.145 871.514C352.732 871.515 353.31 871.516 353.874 871.516C355.063 872.774 354.996 874.036 354.922 875.441C354.903 875.793 354.884 876.154 354.884 876.526V876.528C354.923 888.953 354.919 901.383 354.916 913.812C354.915 917.367 354.914 920.922 354.914 924.476C354.914 924.883 354.913 925.292 354.912 925.701C354.909 926.523 354.907 927.347 354.914 928.17L354.914 928.172L354.916 928.309C354.944 930.678 354.96 932.024 355.472 933.176C355.978 934.313 356.957 935.232 358.674 936.833V936.84V936.855V936.87V936.885V936.9V936.915V936.93V936.945V936.96V936.975V936.99V937.005V937.02V937.035V937.05V937.065V937.08V937.095V937.11V937.125V937.14V937.155V937.17V937.185V937.2V937.215V937.23V937.245V937.261V937.276V937.291V937.306V937.321V937.336V937.351V937.366V937.381V937.396V937.411V937.426V937.441V937.456V937.471V937.486V937.501V937.517V937.532V937.547V937.562V937.577V937.592V937.607V937.622V937.637V937.652V937.667V937.683V937.698V937.713V937.728V937.743V937.758V937.773V937.788V937.804V937.819V937.834V937.849V937.864V937.879V937.894V937.91V937.925V937.94V937.955V937.97V937.985V938V938.016V938.031V938.046V938.061V938.076V938.092V938.107V938.122V938.137V938.152V938.167V938.183V938.198V938.213V938.228V938.243V938.259V938.274V938.289V938.304V938.32V938.335V938.35V938.365V938.381V938.396V938.411V938.426V938.442V938.457V938.472V938.487V938.503V938.518V938.533V938.548V938.564V938.579V938.594V938.609V938.625V938.64V938.655V938.671V938.686V938.701V938.717V938.732V938.747V938.763V938.778V938.793V938.809V938.824V938.839V938.855V938.87V938.885V938.901V938.916V938.931V938.947V938.962V938.977V938.993V939.008V939.023V939.039V939.054V939.07V939.085V939.1V939.116V939.131V939.147V939.162V939.177V939.193V939.208V939.224V939.239V939.254V939.27V939.285V939.301V939.316V939.332V939.347V939.363V939.378V939.393V939.409V939.424V939.44V939.455V939.471V939.486V939.502V939.517V939.533V939.548V939.564V939.579V939.595V939.61V939.626V939.641V939.657V939.672V939.688V939.703V939.719V939.734V939.75V939.766V939.781V939.797V939.812V939.828V939.843V939.859V939.875V939.89V939.906V939.921V939.937V939.952V939.968V939.984V939.999V940.015V940.03V940.046V940.062V940.077V940.093V940.109V940.124V940.14V940.156V940.171V940.187V940.203V940.218V940.234V940.25V940.265V940.281V940.297V940.312V940.328V940.344V940.359V940.375V940.391V940.406V940.422V940.438V940.454V940.469V940.485V940.501V940.517V940.532V940.548V940.564V940.58V940.595V940.611V940.627V940.643V940.658V940.674V940.69V940.706V940.722V940.737V940.753V940.769V940.785V940.801V940.816V940.832V940.848V940.864V940.88V940.896V940.911V940.927V940.943V940.959V940.975V940.991V941.007V941.023V941.038V941.054V941.07V941.086V941.102V941.118V941.134V941.15V941.166V941.182V941.197V941.213V941.229V941.245V941.261V941.277V941.293V941.309V941.325V941.341V941.357V941.373V941.389V941.405V941.421V941.437V941.453V941.469V941.485V941.501V941.517V941.533V941.549V941.565V941.581V941.597V941.613V941.629V941.645V941.661V941.678V941.694V941.71V941.726V941.742V941.758V941.774V941.79V941.806V941.822V941.839V941.855V941.871V941.887V941.903V941.919V941.935V941.952V941.968V941.984V942V942.016V942.032V942.049V942.065V942.081V942.097V942.113V942.13V942.146V942.162V942.178V942.194V942.211V942.227V942.243V942.259V942.276V942.292V942.308V942.324V942.341V942.357V942.373V942.39V942.406V942.422V942.439V942.455V942.471V942.487V942.504V942.52V942.536V942.553V942.569V942.586V942.602V942.618V942.635V942.651V942.667V942.684V942.7V942.717V942.733V942.749V942.766V942.782V942.799V942.815V942.832V942.848V942.864V942.881V942.897V942.914V942.93V942.947V942.963V942.98V942.996V943.013V943.029V943.046V943.062V943.079V943.095V943.112V943.128V943.145V943.161V943.178V943.195V943.211V943.228V943.244V943.261V943.277V943.294V943.311V943.327V943.344V943.36V943.377V943.394V943.41V943.427V943.444V943.46V943.477V943.494V943.51V943.527V943.544V943.56V943.577V943.594V943.61V943.627V943.644V943.66V943.677V943.694V943.711V943.727V943.744V943.761V943.778V943.794V943.811V943.828V943.845V943.862V943.878V943.895V943.912V943.929V943.946V943.962V943.979V943.996V944.013V944.03V944.047V944.064V944.08V944.097V944.114V944.131V944.148V944.165V944.182V944.199V944.216V944.233V944.249V944.266V944.283V944.3V944.317V944.334V944.351V944.368V944.385V944.402V944.419V944.419C355.763 945.848 352.85 945.646 349.929 944.482C346.985 943.304 345.516 940.928 345.181 937.773C345.041 936.448 344.964 935.128 344.886 933.78C344.847 933.125 344.809 932.463 344.763 931.792Z" fill="white" stroke="black"/>
<path d="M471.199 930.15L471.2 930.151C478.751 935.644 487.183 937.865 496.46 937.014L496.46 937.014C499.646 936.718 502.629 935.828 505.379 934.196L505.379 934.196C507.88 932.711 509.551 930.558 510.192 927.623C510.658 925.5 510.579 923.54 509.878 921.838C509.174 920.131 507.862 918.732 505.951 917.706C503.763 916.53 501.349 915.757 499.025 915.02L498.874 915.496L499.025 915.02C496.727 914.29 494.439 913.612 492.158 912.936C489.357 912.107 486.564 911.28 483.77 910.361L483.77 910.361C481.08 909.478 478.417 908.408 475.927 907.094L475.926 907.093C464.967 901.341 462.781 887.267 471.375 878.292C473.783 875.787 476.616 873.932 479.877 872.809L479.877 872.809C490.668 869.086 501.356 869.199 511.83 873.873C515.074 875.325 518.07 877.09 520.233 880.042C519.698 881.439 518.949 882.66 518.116 883.891C517.884 884.234 517.644 884.58 517.4 884.931C516.82 885.765 516.22 886.628 515.658 887.556C515.4 887.392 515.156 887.242 514.924 887.098C514.174 886.634 513.545 886.245 512.964 885.762L512.962 885.761C505.881 879.912 497.651 878.417 488.896 879.611C486.448 879.941 484.001 880.908 481.825 882.032L481.823 882.033C478.912 883.55 477.202 886.761 477.094 890.021C476.986 893.3 478.497 896.686 482.085 898.53C484.1 899.574 486.225 900.444 488.377 901.151C490.63 901.901 492.881 902.597 495.125 903.292C498.343 904.287 501.548 905.279 504.725 906.417L504.726 906.417C508.149 907.638 511.505 909.166 514.682 910.924L514.683 910.924C519.176 913.393 521.475 917.469 521.825 922.56L521.825 922.561C522.345 930.093 519.942 936.324 513.644 940.809L513.644 940.809C510.129 943.313 506.192 944.884 501.998 945.532L501.997 945.532C493.03 946.922 484.154 946.56 475.626 943.221L475.625 943.22C470.587 941.267 465.941 938.701 462.439 934.42C463.421 931.702 464.727 929.29 466.604 926.816C466.981 927.089 467.351 927.357 467.715 927.62C468.92 928.492 470.062 929.318 471.199 930.15Z" fill="white" stroke="black"/>
<path d="M557.004 875.48V875.086V875.073V875.059V875.046V875.032V875.019V875.006V874.992V874.979V874.966V874.952V874.939V874.925V874.912V874.899V874.885V874.872V874.859V874.845V874.832V874.819V874.806V874.792V874.779V874.766V874.752V874.739V874.726V874.713V874.699V874.686V874.673V874.66V874.646V874.633V874.62V874.607V874.593V874.58V874.567V874.554V874.541V874.527V874.514V874.501V874.488V874.475V874.462V874.448V874.435V874.422V874.409V874.396V874.383V874.37V874.356V874.343V874.33V874.317V874.304V874.291V874.278V874.265V874.252V874.239V874.226V874.212V874.199V874.186V874.173V874.16V874.147V874.134V874.121V874.108V874.095V874.082V874.069V874.056V874.043V874.03V874.017V874.004V873.991V873.978V873.965V873.952V873.939V873.926V873.913V873.9V873.887V873.874V873.862V873.849V873.836V873.823V873.81V873.797V873.784V873.771V873.758V873.745V873.732V873.72V873.707V873.694V873.681V873.668V873.655V873.642V873.629V873.617V873.604V873.591V873.578V873.565V873.552V873.54V873.527V873.514V873.501V873.488V873.476V873.463V873.45V873.437V873.424V873.412V873.399V873.386V873.373V873.361V873.348V873.335V873.322V873.31V873.297V873.284V873.271V873.259V873.246V873.233V873.221V873.208V873.195V873.182V873.17V873.157V873.144V873.132V873.119V873.106V873.094V873.081V873.068V873.056V873.043V873.03V873.018V873.005V872.992V872.98V872.967V872.955V872.942V872.929V872.917V872.904V872.892V872.879V872.866V872.854V872.841V872.829V872.816V872.803V872.791V872.778V872.766V872.753V872.741V872.728V872.715V872.703V872.69V872.678V872.665V872.653V872.64V872.628V872.615V872.603V872.59V872.578V872.565V872.553V872.54V872.528V872.515V872.503V872.49V872.478V872.465V872.453V872.44V872.428V872.415V872.403V872.39V872.378V872.365V872.353V872.341V872.328V872.316V872.303V872.291V872.278V872.266V872.254V872.241V872.229V872.216V872.204V872.192V872.179V872.167V872.154V872.142V872.13V872.117V872.105V872.092V872.08V872.068V872.055V872.043V872.031V872.018V872.006V871.993V871.981V871.969V871.956V871.944V871.932V871.919V871.907V871.895V871.882V871.87V871.858V871.846V871.833V871.821V871.809V871.796V871.784V871.772V871.759V871.747V871.735V871.723V871.71V871.698V871.686V871.673V871.661V871.649V871.637V871.624V871.612V871.6V871.588V871.575V871.563V871.551V871.539V871.526V871.514V871.502V871.49V871.477V871.465V871.453V871.441V871.429V871.416V871.404V871.392V871.38V871.367V871.355V871.343V871.331V871.319V871.306V871.294V871.282V871.27V871.258V871.246V871.233V871.221V871.209V871.197V871.185V871.173V871.16V871.148V871.136V871.124V871.112V871.1V871.087V871.075V871.063V871.051V871.039V871.027V871.015V871.002V870.99V870.978V870.966V870.954V870.942V870.93V870.918V870.905V870.893V870.881V870.869V870.857V870.845V870.833V870.821V870.809V870.797V870.784V870.772V870.76V870.748V870.736V870.724V870.712V870.7V870.688V870.676V870.664V870.652V870.639V870.627V870.615V870.603V870.591V870.579V870.567V870.555V870.543V870.531V870.519V870.507V870.495V870.483V870.471V870.459V870.447V870.435V870.423V870.411V870.398V870.386V870.374V870.362V870.35V870.338V870.326V870.314V870.302V870.29V870.278V870.266V870.254V870.242V870.23V870.218V870.206V870.194V870.182V870.17V870.158V870.146V870.134V870.122V870.11V870.098V870.086V870.074V870.062V870.05V870.038V870.026V870.014V870.002V869.99V869.978V869.966V869.954V869.942V869.93V869.918V869.907V869.895V869.883V869.871V869.859V869.847V869.835V869.823V869.811V869.799V869.787V869.775V869.763V869.751V869.739V869.727V869.715V869.703V869.691V869.679V869.667V869.655V869.643V869.632V869.62V869.608V869.596V869.584V869.572V869.56V869.548V869.536V869.524V869.512V869.5V869.488V869.476V869.464V869.452V869.441V869.429V869.417V869.405V869.393V869.381V869.369V869.357V869.345V869.333V869.321V869.309V869.297V869.286V869.274V869.262V869.25V869.238V869.226V869.214V869.202V869.19V869.178V869.166V869.155V869.143V869.131V869.119V869.107V869.095V869.083V869.071V869.059V869.047V869.035V869.024V869.012V869V868.988V868.976V868.964V868.952V868.94V868.928V868.916V868.905V868.893V868.881V868.869V868.857V868.845V868.833V868.821V868.809V868.797V868.786V868.774V868.762V868.75V868.738V868.726C557.004 867.636 557.005 866.546 557.007 865.457C557.012 861.837 557.018 858.221 556.964 854.604M557.004 875.48L557.464 854.596M557.004 875.48L557.387 875.572C557.849 875.683 558.268 875.805 558.68 875.926C558.893 875.988 559.105 876.05 559.319 876.109C559.93 876.278 560.543 876.419 561.171 876.436L561.172 876.436C564.143 876.509 567.117 876.497 570.109 876.485C571.123 876.481 572.138 876.477 573.156 876.476C574.283 879.389 573.954 882.035 573.554 885.016C571.083 885.556 568.586 885.534 566.013 885.485C565.898 885.483 565.783 885.48 565.668 885.478C563.107 885.428 560.471 885.377 557.818 885.895L557.45 885.967L557.416 886.341C557.369 886.857 557.311 887.36 557.254 887.852C557.136 888.872 557.024 889.846 557.024 890.796M557.004 875.48L578.835 946.862M556.964 854.604C556.964 854.604 556.964 854.604 556.964 854.604L557.464 854.596M556.964 854.604C556.964 854.605 556.964 854.605 556.964 854.605L557.464 854.596M556.964 854.604C556.955 854.085 556.863 853.556 556.738 852.983C556.695 852.788 556.647 852.582 556.598 852.37C556.535 852.101 556.47 851.821 556.409 851.538M557.464 854.596C557.45 853.821 557.27 853.05 557.081 852.24C556.992 851.859 556.901 851.469 556.824 851.066M556.409 851.538C556.535 851.547 556.662 851.556 556.789 851.565L556.824 851.066M556.409 851.538C556.381 851.536 556.352 851.534 556.323 851.532C552.617 851.272 549.316 851.04 545.792 851.731M556.409 851.538C556.383 851.413 556.357 851.286 556.333 851.16L556.824 851.066M556.824 851.066L545.792 851.731M545.792 851.731C545.753 852.208 545.71 852.665 545.669 853.107C545.563 854.23 545.467 855.259 545.454 856.302C545.432 858.656 545.433 861.023 545.435 863.392C545.436 866.36 545.438 869.331 545.394 872.284L545.394 872.285C545.383 872.907 545.259 873.518 545.114 874.104C545.055 874.341 544.995 874.567 544.936 874.789C544.842 875.139 544.751 875.481 544.672 875.843L544.592 876.211L544.216 876.235C543.768 876.264 543.326 876.292 542.89 876.32C540.414 876.478 538.1 876.626 535.631 876.78C535.206 879.799 535.031 882.445 535.735 885.014C537.066 885.474 538.418 885.466 539.852 885.456C539.931 885.456 540.01 885.455 540.09 885.455C541.666 885.446 543.341 885.469 544.962 886.301L545.224 886.436L545.234 886.73C545.255 887.399 545.282 888.059 545.309 888.712C545.367 890.143 545.424 891.543 545.424 892.936M545.792 851.731L544.924 892.936M545.424 892.936C545.424 892.936 545.424 892.936 545.424 892.936H544.924M545.424 892.936C545.424 892.936 545.424 892.936 545.424 892.935L544.924 892.936M545.424 892.936C545.439 902.921 545.437 912.911 545.435 922.898C545.434 926.225 545.434 929.551 545.434 932.876C545.434 933.311 545.43 933.744 545.426 934.174C545.414 935.379 545.403 936.567 545.483 937.752M544.924 892.936C544.939 902.921 544.937 912.911 544.935 922.898C544.934 926.224 544.934 929.551 544.934 932.876C544.934 933.301 544.93 933.726 544.926 934.153C544.914 935.364 544.903 936.58 544.984 937.786M545.483 937.752L544.984 937.786M545.483 937.752C545.721 941.252 546.916 944.215 548.895 946.445C550.874 948.675 553.662 950.2 557.137 950.783L557.137 950.783C564.839 952.085 572.108 950.658 578.835 946.862M545.483 937.752C545.483 937.752 545.483 937.752 545.483 937.752L544.984 937.786M544.984 937.786C545.474 944.976 549.904 950.076 557.054 951.276L578.835 946.862M578.835 946.862C578.846 946.967 578.856 947.074 578.866 947.183L579.364 947.136L579.115 946.703C579.022 946.756 578.929 946.809 578.835 946.862ZM578.835 946.862C578.61 944.531 578.435 943.217 578.071 942.075C577.717 940.962 577.177 939.994 576.179 938.389M576.179 938.389C576.299 938.355 576.418 938.321 576.538 938.288L576.404 937.806L575.98 938.072C576.048 938.18 576.114 938.286 576.179 938.389ZM576.179 938.389C575.483 938.589 574.779 938.809 574.067 939.031C572.194 939.615 570.268 940.216 568.319 940.51C565.042 941.005 562.314 940.412 560.344 938.802C558.375 937.194 557.246 934.639 557.025 931.38L557.025 931.379C556.994 930.901 556.998 930.411 557.001 929.946C557.003 929.796 557.004 929.649 557.004 929.506C557.004 926.929 557.003 924.352 557.003 921.775C557.001 911.45 557 901.119 557.024 890.796M557.024 890.796C557.024 890.796 557.024 890.796 557.024 890.796H557.524L557.024 890.795C557.024 890.795 557.024 890.795 557.024 890.796Z" fill="white" stroke="black"/>
<path d="M402.933 186.404L402.933 186.404C404.266 185.597 405.566 184.713 406.832 183.852C407.278 183.548 407.72 183.248 408.158 182.955C410.121 184.552 413.852 188.245 417.546 192.134C421.236 196.018 424.843 200.048 426.565 202.312C414.24 215.51 390.002 222.686 368.869 216.297L368.869 216.297C345.17 209.139 330.425 193.311 325.313 169.192C320.873 148.183 328.863 124.555 343.438 113.356C344.919 114.931 346.385 116.492 347.839 118.038C352.386 122.874 356.805 127.574 361.119 132.17C361.125 133.19 360.758 133.903 360.254 134.536C360.001 134.853 359.719 135.144 359.422 135.451C359.396 135.478 359.37 135.505 359.344 135.532C359.025 135.861 358.69 136.213 358.408 136.604C352.254 145.137 349.901 154.462 352.276 164.877C357.392 187.379 383.161 198.35 402.933 186.404Z" fill="white" stroke="black"/>
<path d="M482.332 150.171L482.332 150.17C487.586 142.147 488.217 133.661 483.664 125.219C479.098 116.751 471.57 112.747 462.027 112.696C458.37 112.675 454.979 113.809 451.798 115.42C450.733 115.956 449.7 116.573 448.731 117.151C448.49 117.294 448.254 117.436 448.021 117.573C446.204 115.958 443.037 112.554 439.716 108.731C436.355 104.86 432.863 100.593 430.499 97.3835C430.694 97.1798 430.89 96.9684 431.082 96.76C431.253 96.5751 431.422 96.3926 431.587 96.22C432.048 95.7364 432.511 95.2922 433.021 94.9357L433.023 94.9343C463.897 73.0934 507.042 90.3887 513.291 128.427L513.291 128.427C516.094 145.464 511.119 160.554 498.779 172.964L498.778 172.965C498.245 173.505 497.645 173.95 496.92 174.488C496.665 174.677 496.395 174.878 496.106 175.098C493.694 172.258 491.306 169.444 488.917 166.629C485.594 162.713 482.268 158.794 478.875 154.798C479.204 154.366 479.534 153.943 479.86 153.524C480.732 152.404 481.581 151.315 482.332 150.171Z" fill="white" stroke="black"/>
<path d="M301.074 113.765L301.074 113.765C294.078 109.283 285.549 109.706 279.345 114.851C272.89 120.196 270.899 128.685 274.285 136.534C274.68 137.451 275.164 138.347 275.625 139.199C275.776 139.477 275.924 139.751 276.065 140.019C274.681 141.823 271.42 144.985 267.591 148.339C263.728 151.721 259.337 155.256 255.82 157.714C241.102 141.229 240.808 111.612 261.437 94.1174C282.088 76.6139 311.469 81.9743 324.856 98.7449C323.409 100.502 320.012 103.712 316.154 107.061C312.194 110.497 307.8 114.035 304.636 116.228C304.356 116.032 304.07 115.829 303.78 115.623C302.914 115.008 302.005 114.363 301.074 113.765Z" fill="white" stroke="black"/>
<path d="M436.662 435.838C443.591 431.495 450.554 427.13 458.381 422.469C458.049 426.736 457.73 430.839 457.421 434.83C456.867 441.956 456.342 448.721 455.821 455.41C453.671 457.346 448.507 461.007 443.297 464.436C440.638 466.186 437.98 467.867 435.724 469.218C433.677 470.443 431.984 471.381 430.925 471.856C430.907 471.838 430.89 471.821 430.873 471.804C430.823 471.754 430.779 471.71 430.736 471.663C430.678 471.6 430.644 471.557 430.626 471.527C431.039 461.642 431.493 451.748 431.951 441.765C431.998 440.744 432.045 439.723 432.091 438.701C433.619 437.746 435.14 436.793 436.662 435.838ZM430.614 471.508C430.614 471.508 430.615 471.508 430.615 471.509C430.615 471.508 430.614 471.508 430.614 471.508Z" fill="white" stroke="black"/>
<path d="M505.885 392.942L505.885 392.942L505.889 392.94C506.054 392.837 506.267 392.769 506.55 392.707C506.633 392.689 506.73 392.67 506.834 392.649C506.853 392.646 506.872 392.642 506.891 392.638C506.943 393.633 506.91 395.159 506.802 397.075C506.671 399.379 506.433 402.21 506.119 405.283C505.497 411.36 504.575 418.366 503.585 424.078C496.22 429.692 486.576 435.907 481.871 438.071C481.865 438.024 481.86 437.978 481.854 437.932C481.838 437.8 481.822 437.674 481.81 437.558C481.77 437.185 481.752 436.865 481.79 436.57C482.354 432.234 482.722 427.874 483.089 423.523C483.159 422.692 483.229 421.861 483.301 421.032C483.74 415.923 484.231 410.827 485.089 405.763C492.122 401.414 498.999 397.163 505.885 392.942Z" fill="white" stroke="black"/>
</svg>
